<svg xmlns="http://www.w3.org/2000/svg" viewBox="0 0 256 256">
  <defs>
    <linearGradient id="bg" x1="0" y1="0" x2="0" y2="1">
      <stop offset="0" stop-color="#FF9A54"/>
      <stop offset="1" stop-color="#FF7A2F"/>
    </linearGradient>
  </defs>
  <rect x="8" y="8" width="240" height="240" rx="52" ry="52" fill="url(#bg)"/>
  <rect x="8" y="8" width="240" height="240" rx="52" ry="52" fill="none" stroke="#FFB27C" stroke-width="2" opacity="0.6"/>

  <g fill="#14181F" opacity="0.92">
    <rect x="36"  y="72"  width="8" height="40"  rx="3"/>
    <rect x="52"  y="60"  width="8" height="64"  rx="3"/>
    <rect x="68"  y="48"  width="8" height="88"  rx="3"/>
    <rect x="84"  y="38"  width="8" height="108" rx="3"/>
    <rect x="100" y="54"  width="8" height="76"  rx="3"/>
    <rect x="116" y="30"  width="8" height="124" rx="3"/>
    <rect x="132" y="44"  width="8" height="96"  rx="3"/>
    <rect x="148" y="58"  width="8" height="68"  rx="3"/>
    <rect x="164" y="40"  width="8" height="104" rx="3"/>
    <rect x="180" y="56"  width="8" height="72"  rx="3"/>
    <rect x="196" y="70"  width="8" height="44"  rx="3"/>
    <rect x="212" y="80"  width="8" height="24"  rx="3"/>
  </g>

  <g font-family="Segoe UI, Arial, sans-serif" font-weight="800" text-anchor="middle" fill="#14181F">
    <text x="128" y="198" font-size="34" letter-spacing="2">SIMPLE</text>
    <text x="128" y="232" font-size="34" letter-spacing="2">SOUND</text>
  </g>
</svg>
